<svg xmlns="http://www.w3.org/2000/svg" class="svg-sprite"><symbol id="arrow" viewBox="0 0 112 124.8"><path d="M29.2 70.4l-.2.6c4 3 8 7.2 12.4 12 9.4 10.2 18.8 20.2 28 30.4L56 124.8 0 62.4 56 0l13.4 11.4-28 30.4c-4.4 4.8-8.4 9-12.4 12l.2.6H112v16z"/></symbol><symbol id="bag-filled" viewBox="0 0 78.83 96.2"><rect width="100%" height="100%" fill="none"/><g class="currentLayer"><path class="a" d="M78.78 92.5l-8.2-70.4a3.32 3.32 0 0 0-3.25-2.8h-9.7v-1.1a18.2 18.2 0 1 0-36.4 0v1.1h-9.8a3.4 3.4 0 0 0-3.27 2.77L.05 92.57v.23a3.67 3.67 0 0 0 .64 2.11 3.06 3.06 0 0 0 2.64 1.29h72.2a3.6 3.6 0 0 0 2.11-.74l.33-.22.22-.33a3.2 3.2 0 0 0 .59-2.41zM6.95 89.73l7.38-63.83h50.13l7.34 63.8zM39.33 6.5a11.86 11.86 0 0 1 11.7 11.7v1.1h-23.3v-1.1a11.67 11.67 0 0 1 11.6-11.7z"/><path d="M11.99 23.257l54.38.035 8.516 68.876-71.38.25 8.484-69.16z" color="#000"/></g></symbol><symbol id="bag" viewBox="0 0 78.83 96.2"><path class="a" d="M78.78 92.5l-8.2-70.4a3.32 3.32 0 0 0-3.25-2.8h-9.7v-1.1a18.2 18.2 0 1 0-36.4 0v1.1h-9.8a3.4 3.4 0 0 0-3.27 2.77L.05 92.57v.23a3.67 3.67 0 0 0 .64 2.11 3.06 3.06 0 0 0 2.64 1.29h72.2a3.6 3.6 0 0 0 2.11-.74l.33-.22.22-.33a3.2 3.2 0 0 0 .59-2.41zM6.95 89.73l7.38-63.83h50.13l7.34 63.8zM39.33 6.5a11.86 11.86 0 0 1 11.7 11.7v1.1h-23.3v-1.1a11.67 11.67 0 0 1 11.6-11.7z"/></symbol><symbol id="caret-down" viewBox="0 0 20 20"><path fill="#000" d="M0 6h20l-10 8z" fill-rule="evenodd"/></symbol><symbol id="close" viewBox="0 0 78.92 78.92"><path d="M78.92 7.42L71.5 0 39.46 32.04 7.42 0 0 7.42l32.04 32.04L0 71.5l7.42 7.42 32.04-32.04L71.5 78.92l7.42-7.42-32.04-32.04L78.92 7.42z"/></symbol><symbol id="cross-archive" viewBox="0 0 41.6 41.6"><path fill="none" stroke="#000" stroke-linecap="round" stroke-linejoin="round" d="M41.1 5.4L36.2.5 20.8 15.9 5.4.5.5 5.4l15.4 15.4L.5 36.2l4.9 4.9 15.4-15.4 15.4 15.4 4.9-4.9-15.4-15.4L41.1 5.4z"/></symbol><symbol id="cross" viewBox="0 0 320.11 319.99"><path d="M320.11 52.05L268.01 0 160.06 107.88 52.1 0 0 52.05l107.92 107.93L0 267.81l52.2 52.18 107.86-107.87 107.86 107.87 52.19-52.18-107.92-107.83L320.11 52.05z"/></symbol><symbol id="down_arrow" viewBox="0 0 61 74.02"><path fill="none" stroke="#000" stroke-linecap="round" stroke-linejoin="round" d="M27.04.5v59.77L5.39 38.62.5 43.52l30 30 30-30-4.89-4.9-21.65 21.65V.5h-6.92z"/></symbol><symbol id="facebook" viewBox="0 0 73.27 73.27"><path class="a" d="M70.21 0H3.05A3.06 3.06 0 0 0 0 3.05v67.16a3.06 3.06 0 0 0 3.05 3.06h35.87V45.79h-9.16V34.34h9.16v-9.15c0-9.47 6-14.12 14.44-14.12a80.3 80.3 0 0 1 8.53.43v9.89H56c-4.59 0-5.66 2.19-5.66 5.39v7.56h11.48l-2.29 11.45h-9.16l.18 27.48h19.66a3.06 3.06 0 0 0 3.06-3.06V3.05A3.06 3.06 0 0 0 70.21 0z"/></symbol><symbol id="info" viewBox="0 0 73.8 378.92"><path d="M73.66 129.69L0 129.65v249.26h73.8zM73.69 0H0v73.67h73.69z"/></symbol><symbol id="instagram" viewBox="0 0 73.27 73.27"><path class="a" d="M64.56 0H8.71A8.7 8.7 0 0 0 0 8.69v55.89a8.7 8.7 0 0 0 8.71 8.69h55.85a8.7 8.7 0 0 0 8.71-8.69V8.69A8.7 8.7 0 0 0 64.56 0zM55 9.16h6.87a2.29 2.29 0 0 1 2.29 2.29v6.87a2.3 2.3 0 0 1-2.29 2.29H55a2.3 2.3 0 0 1-2.29-2.29v-6.87A2.29 2.29 0 0 1 55 9.16zm-18.28 13.5a14.06 14.06 0 1 1-14.09 14.06 14.08 14.08 0 0 1 14.09-14.06zM64.11 66.4H9.16a2.29 2.29 0 0 1-2.29-2.29V29.76H16c-1.2 1.72-1.6 4.92-1.6 7a22.29 22.29 0 0 0 44.58 0c0-2-.29-5.19-1.77-7h9.19v34.35a2.3 2.3 0 0 1-2.29 2.29z"/></symbol><symbol id="mail" viewBox="0 0 98.93 76.97"><path class="a" d="M98.91 3.08V2.9a3.61 3.61 0 0 0-.18-.77.25.25 0 0 0 0-.07 3.14 3.14 0 0 0-.42-.72c0-.06-.09-.1-.13-.16a3.08 3.08 0 0 0-.64-.57 2.92 2.92 0 0 0-.75-.37l-.27-.11a3.34 3.34 0 0 0-.79-.13H3.19a2.8 2.8 0 0 0-.78.12l-.22.07a3.39 3.39 0 0 0-.78.4 2.89 2.89 0 0 0-.59.53l-.14.18a3.36 3.36 0 0 0-.42.7.45.45 0 0 0 0 .11A3.21 3.21 0 0 0 0 2.9a1.65 1.65 0 0 1 0 .21V73.7A3.27 3.27 0 0 0 3.27 77h92.39a3.27 3.27 0 0 0 3.27-3.27V3.27a1.23 1.23 0 0 0-.02-.19zM11.39 6.54h76.15L49.47 43.11zm81 4.4v59.49H6.54V10.94L47.2 50a3.34 3.34 0 0 0 4.53 0z"/></symbol><symbol id="marker-selected" viewBox="0 0 36 45.974"><path d="M100 77c-9.9 0-18 7.8-18 17.4 0 3.8 1.3 7.4 3.6 10.4l13.6 17.8c.3.4 1 .5 1.4.2l.2-.2 13.6-17.8c2.3-3 3.6-6.6 3.6-10.4 0-9.6-8.1-17.4-18-17.4z" transform="translate(-82 -77)"/><path d="M16.6 24.2c-3.8-.8-6.3-4.4-5.5-8.2.8-3.8 4.4-6.3 8.2-5.5 2.8.6 5 2.7 5.5 5.5.7 3.8-1.8 7.5-5.5 8.2-.9.2-1.8.2-2.7 0z" fill="#fff"/></symbol><symbol id="marker" viewBox="0 0 36 45.974"><style id="style3" type="text/css"/><g transform="translate(-82 -77)" id="g5"><path id="path7" d="M100 77c-9.9 0-18 7.8-18 17.4 0 3.8 1.3 7.4 3.6 10.4l13.6 17.8c.3.4 1 .5 1.4.2l.2-.2 13.6-17.8c2.3-3 3.6-6.6 3.6-10.4 0-9.6-8.1-17.4-18-17.4z"/></g></symbol><symbol id="monogram" viewBox="0 0 85.5 89.91"><path d="M84.53 19.79l1-19.79H75.01l.86 19.79v21.2H33.98l-10.07-4.46q-7.68-2.65-11.07-6.31a11.65 11.65 0 0 1-3.54-8.27q0-6.58 5.92-12.17c4.76-4.48 11.86-4.29 14.46-4.34a32.23 32.23 0 0 1 13.67 3 36 36 0 0 1 8 4.63V4.48a57.6 57.6 0 0 0-8.18-2.71A49.52 49.52 0 0 0 32.75.13a38.08 38.08 0 0 0-14.16 1.64 31.89 31.89 0 0 0-9.33 4.88Q.11 13.47.11 21.95q0 7.24 3.25 11.3 4.29 5.46 17.71 11.15l7.68 3.31a43.28 43.28 0 0 1 13.16 8.36q5.16 5.08 5.77 10a15 15 0 0 1-.55 4.08 17.83 17.83 0 0 1-5.51 8.71c-5.56 4.68-13.37 4.72-16.94 4.74-7.75 0-13.59-2.5-17.39-4.15a49 49 0 0 1-7.32-4v8.56l2.34 1a70.18 70.18 0 0 0 11.86 3.87 44.18 44.18 0 0 0 9.88 1q14.79 0 23.95-7.61 8.58-7.08 8.58-17 0-7.6-4-12.41a32.78 32.78 0 0 0-9-7.11h32.26v24.28l-1 19.77h10.49l-.83-19.78z"/></symbol><symbol id="newtab" viewBox="0 0 38 38"><path d="M24.5 0H38v13.75l-5 4.75V9L17.75 24.25 14 20.5 29.5 5h-10l5-5zM0 8h22.5l-5 5H5v20h20V21.5l5-5V38H0V8z" stroke-width=".2" stroke-linejoin="round"/></symbol><symbol id="phone" viewBox="0 0 93.89 94.4"><path class="a" d="M90.4 67.19L79 55.71a10.17 10.17 0 0 0-7.53-3.41 10.7 10.7 0 0 0-7.6 3.39l-6.17 6.19-1.76-.88a10.78 10.78 0 0 1-1.41-.76 70.46 70.46 0 0 1-17-15.47 41.08 41.08 0 0 1-5.38-8.33c1.17-1.07 2.25-2.17 3.31-3.24.4-.4.79-.81 1.19-1.2l1.8-1.8A10.88 10.88 0 0 0 42 22.5a10.88 10.88 0 0 0-3.49-7.71l-5.7-5.7c-.68-.68-1.27-1.27-1.85-1.94l-.07-.08C29.6 5.79 28.28 4.47 27 3.29A10.39 10.39 0 0 0 19.49 0a10.85 10.85 0 0 0-7.61 3.3l-7.09 7.29A15.75 15.75 0 0 0 .1 20.71c-.41 4.68.44 9.53 2.75 15.73 3.3 9.08 8.4 17.59 16.08 26.8A98.64 98.64 0 0 0 51.76 88.9c4.77 2.29 11.19 5 18.63 5.5h1.3A16.29 16.29 0 0 0 84.2 89l.16-.16A40.83 40.83 0 0 1 88 85.11l2.73-2.73c4.33-4.66 4.19-10.77-.33-15.19zm-63.91-35.1l-.1.1a4.88 4.88 0 0 0-1.28 5.31 1.06 1.06 0 0 0 .23.54 47.14 47.14 0 0 0 6.77 11 79.14 79.14 0 0 0 18.65 17c.8.5 1.72 1 2.59 1.44l.6.3a11.69 11.69 0 0 1 1.39.74l.25.17a.58.58 0 0 0 .17.06 5.56 5.56 0 0 0 2.24.55 4.73 4.73 0 0 0 3.66-1.74l7.05-7.05a3.72 3.72 0 0 1 2.69-1.31 4.26 4.26 0 0 1 2.6 1.31L85.47 72c1.85 1.92 1.82 3.68-.1 5.72a30 30 0 0 1-2.46 2.45l-1 1c-1 1-2.08 2-3 3.16a9.45 9.45 0 0 1-7.38 3.09h-.93c-6.12-.39-11.78-2.77-16-4.8a90.94 90.94 0 0 1-30.54-23.86C17 50.32 12.3 42.47 9.23 34.06c-1.9-5.2-2.62-9.14-2.34-12.78a8.89 8.89 0 0 1 2.71-5.77l7.07-7.07a4.41 4.41 0 0 1 2.72-1.34A3.62 3.62 0 0 1 22 8.43c1.27 1.18 2.46 2.38 3.77 3.68l7.7 7.7a3.86 3.86 0 0 1 1.4 2.69 4.09 4.09 0 0 1-1.4 2.69L31.69 27l-1.35 1.36c-1.28 1.29-2.49 2.52-3.85 3.73z"/></symbol><symbol id="pinterest" viewBox="0 0 82 82"><path class="a" d="M41 0a41 41 0 0 0-14.94 79.18c-.36-3.24-.68-8.22.14-11.76C27 64.22 31 47 31 47a14.8 14.8 0 0 1-1.22-6c0-5.7 3.31-10 7.42-10 3.5 0 5.19 2.63 5.19 5.78 0 3.52-2.24 8.78-3.4 13.65a6 6 0 0 0 6.07 7.41C52.35 57.83 58 50.15 58 39.05c0-9.81-7.05-16.68-17.12-16.68-11.67 0-18.52 8.75-18.52 17.8a15.89 15.89 0 0 0 3.06 9.35 1.25 1.25 0 0 1 .28 1.18c-.31 1.29-1 4.08-1.14 4.65-.18.75-.59.91-1.37.55C18 53.51 14.82 46 14.82 40c0-12.93 9.39-24.81 27.09-24.81 14.22 0 25.27 10.14 25.27 23.68 0 14.13-8.91 25.5-21.27 25.5-4.16 0-8.06-2.15-9.4-4.7L34 69.42c-.93 3.56-3.43 8-5.1 10.75A41 41 0 1 0 41 0z"/></symbol><symbol id="play" viewBox="0 0 62.9 67.4"><path d="M0 67.39L62.9 33.7 0 0v67.39z"/></symbol><symbol id="sassi-logo" viewBox="0 0 361.77 22"><defs><style>.a{fill:#242526}</style></defs><path class="a" d="M14.96 15.99a5.1 5.1 0 0 1-2.27 4.15A10.09 10.09 0 0 1 6.36 22a12.3 12.3 0 0 1-2.61-.25 19 19 0 0 1-3.13-.92L0 20.58v-1.79a16.53 16.53 0 0 0 1.91 1 11.39 11.39 0 0 0 4.61 1.05 6.58 6.58 0 0 0 4.49-1.58 3.26 3.26 0 0 0 .08-5.58 11.42 11.42 0 0 0-3.48-2l-2-.81A12.19 12.19 0 0 1 .93 8.14a4 4 0 0 1-.86-2.76c0-1.38.8-2.63 2.42-3.75A9.7 9.7 0 0 1 8.12-.01a18.4 18.4 0 0 1 3.28.55l2.22.56v1.84c-.84-.41-1.5-.72-2-.93a10.56 10.56 0 0 0-3.74-.93 5.56 5.56 0 0 0-3.83 1.36 3.94 3.94 0 0 0-1.56 3 2.75 2.75 0 0 0 .93 2 7.28 7.28 0 0 0 2.93 1.54l2.74 1.12a13.12 13.12 0 0 1 4.84 2.89 4.32 4.32 0 0 1 1.03 3zm34.01 5.76h-3.28l-1-2.82-2.07-4.86H32.29l-2.19 4.87-.93 2.82h-2.11l1.49-2.79 8.08-18V.22h2.58l8.27 18.72zm-6.83-8.68L37.49 2.51 32.8 13.07zm34.26 2.92a5.1 5.1 0 0 1-2.27 4.15A10.14 10.14 0 0 1 67.79 22a12.3 12.3 0 0 1-2.61-.25 19 19 0 0 1-3.13-.92l-.62-.25v-1.79a17.4 17.4 0 0 0 1.91 1 11.44 11.44 0 0 0 4.62 1.05 6.58 6.58 0 0 0 4.49-1.58 4.14 4.14 0 0 0 1.6-3.13 4.24 4.24 0 0 0-1.53-2.45 11.42 11.42 0 0 0-3.48-2l-2-.81a12.36 12.36 0 0 1-4.68-2.73 4.09 4.09 0 0 1-.86-2.76q0-2.07 2.42-3.75a9.72 9.72 0 0 1 5.63-1.64 18.26 18.26 0 0 1 3.28.55l2.22.56v1.84c-.83-.41-1.5-.72-2-.93a10.55 10.55 0 0 0-3.75-.93 5.53 5.53 0 0 0-3.82 1.36 4 4 0 0 0-1.57 3 2.76 2.76 0 0 0 .94 2 7.21 7.21 0 0 0 2.93 1.54l2.73 1.12a13.18 13.18 0 0 1 4.85 2.89 4.37 4.37 0 0 1 1.04 3zm28.58 0a5.1 5.1 0 0 1-2.27 4.15A10.09 10.09 0 0 1 96.38 22a12.3 12.3 0 0 1-2.61-.25 19 19 0 0 1-3.13-.92l-.62-.25v-1.79a16.53 16.53 0 0 0 1.91 1 11.43 11.43 0 0 0 4.61 1.05 6.56 6.56 0 0 0 4.49-1.58 4.15 4.15 0 0 0 1.61-3.13 4.24 4.24 0 0 0-1.53-2.45 11.42 11.42 0 0 0-3.48-2l-2-.81a12.19 12.19 0 0 1-4.68-2.73 4 4 0 0 1-.86-2.76q0-2.07 2.42-3.75a9.72 9.72 0 0 1 5.63-1.64 18.4 18.4 0 0 1 3.28.55l2.22.56v1.84c-.83-.41-1.5-.72-2-.93a10.65 10.65 0 0 0-3.75-.93 5.57 5.57 0 0 0-3.83 1.36 3.94 3.94 0 0 0-1.56 3 2.72 2.72 0 0 0 .94 2 7.16 7.16 0 0 0 2.92 1.54l2.74 1.12a13 13 0 0 1 4.84 2.89 4.32 4.32 0 0 1 1.04 3zm17.84 5.76h-2.81l.11-4.74v-12l-.19-4.78h2.85l-.15 4.81v12zM168.87.21l-.27 4.75v12.05l.23 4.74h-2.9l.28-4.74v-5.82h-13.12v5.82l.27 4.74h-3l.24-4.74V4.94l-.24-4.75h2.93l-.23 4.75v5.08h13.15V4.94l-.24-4.75zm36.4 10.82q0 5.29-2.73 8.12t-7.78 2.79q-5 0-7.69-2.7c-1.9-1.88-2.85-4.63-2.85-8.27s1-6.37 2.85-8.28 4.39-2.72 7.7-2.72a10.63 10.63 0 0 1 7.74 2.75c1.84 1.88 2.76 4.63 2.76 8.31zm-2.73 0q0-4.94-2-7.54a7.78 7.78 0 0 0-11.44-.18q-2.11 2.58-2.11 7.68 0 4.77 2.11 7.41a6.86 6.86 0 0 0 5.7 2.63 6.94 6.94 0 0 0 5.7-2.63q2.04-2.63 2.04-7.36zm32.45 10.72h-14.38l.24-4.74V4.94l-.24-4.75h2.94l-.23 4.75v15.61h6.25l5.42-.18zm27.73-20.21l-6-.21h-5.71v8.8h4.49c.52 0 1.27 0 2.26-.09s2-.1 2.93-.19v1.61l-5.19-.31h-4.49v5.86l.15 4.74h-2.8l.19-4.74v-12L248.4.23h14.32zm33.39 9.49q0 5.29-2.73 8.12t-7.77 2.79c-3.32 0-5.88-.9-7.7-2.7s-2.85-4.63-2.85-8.27.95-6.37 2.85-8.28 4.39-2.72 7.7-2.72a10.63 10.63 0 0 1 7.74 2.75c1.86 1.88 2.76 4.63 2.76 8.31zm-2.73 0q0-4.94-2-7.54a7.78 7.78 0 0 0-11.44-.18q-2.12 2.58-2.11 7.68 0 4.77 2.11 7.41a6.86 6.86 0 0 0 5.7 2.63 6.94 6.94 0 0 0 5.7-2.63q2.04-2.63 2.04-7.36zm36.09 10.72h-3.71l-4.68-4.71-5.48-5.1h-1.39v5.15l.19 4.71h-2.88l.31-4.71V4.99l-.24-4.78h7.23a13.18 13.18 0 0 1 6.64 1.55q2.65 1.59 2.66 3.76a5.27 5.27 0 0 1-2.24 4.24 11.07 11.07 0 0 1-7.06 2l5.55 5.24zm-4.14-15.74a3.77 3.77 0 0 0-2.22-3.38 13.5 13.5 0 0 0-6.3-1.21h-2.6v9.45c4 0 6.84-.44 8.67-1.33a3.81 3.81 0 0 0 2.45-3.53zm36.44 4.86c0 3.66-1 6.41-3 8.25s-4.71 2.63-8.36 2.63h-7.1l.27-5.23V4.99l-.2-4.78h6.33q5.82 0 9 2.7t3.06 7.96zm-2.57.13q0-5.05-2.39-7.38t-7.18-2.29h-3.68v19.24h4.89q4.07 0 6.13-2.19 2.24-2.37 2.24-7.38z"/></symbol><symbol id="search" viewBox="0 0 79.17 81.4"><path class="a" d="M78.21 75.79L63.4 61.06A36.43 36.43 0 1 0 36.5 73a35.72 35.72 0 0 0 22.06-7.52l15 14.93a3.43 3.43 0 0 0 2.31 1 3.05 3.05 0 0 0 2.43-1.11 3.26 3.26 0 0 0-.09-4.51zM36.5 6.6A29.9 29.9 0 1 1 6.6 36.5 29.93 29.93 0 0 1 36.5 6.6z"/></symbol><symbol id="sh-badge" viewBox="0 0 155.6 155.6"><path d="M98.14 55.85h-5.13l.42 9.66v10.35H72.98l-4.92-2.17a13.28 13.28 0 0 1-5.41-3.09 5.69 5.69 0 0 1-1.73-4 8.12 8.12 0 0 1 2.89-5.95c2.33-2.19 5.79-2.09 7.06-2.12a15.68 15.68 0 0 1 6.68 1.46 17.41 17.41 0 0 1 3.93 2.26v-4.2a28.25 28.25 0 0 0-4-1.32 23.53 23.53 0 0 0-5.09-.8 18.47 18.47 0 0 0-6.91.8 15.56 15.56 0 0 0-4.56 2.38c-3 2.23-4.47 4.72-4.47 7.49a8.64 8.64 0 0 0 1.59 5.52q2.08 2.65 8.64 5.44l3.75 1.62a20.93 20.93 0 0 1 6.43 4.08 8.56 8.56 0 0 1 2.82 4.9 7.4 7.4 0 0 1-.27 2 8.68 8.68 0 0 1-2.69 4.25c-2.72 2.29-6.53 2.31-8.27 2.32a20.4 20.4 0 0 1-8.5-2 23.13 23.13 0 0 1-3.57-1.93v4.18l1.14.5a34.2 34.2 0 0 0 5.78 1.85 21.68 21.68 0 0 0 4.83.49q7.21 0 11.69-3.71a10.47 10.47 0 0 0 4.19-8.3 9.15 9.15 0 0 0-1.95-6.06 16.08 16.08 0 0 0-4.38-3.47h15.75v11.85l-.49 9.66h5.13l-.41-9.66V65.51zm-35.78-36c2.3-.61 2.84-2.64 2.33-4.55s-2-3.4-4.28-2.79l-3 .8 2 7.34zm-1.67-6.25c1.34-.36 2.29.56 2.69 2.05s0 2.76-1.32 3.12l-1.69.45-1.38-5.17zM140 104.06l.55-1.2-6.9-3.16-.55 1.2 3.14 1.44-1.63 3.57-3.14-1.44-.56 1.21 6.9 3.16.56-1.21-2.74-1.25 1.63-3.57zm-36.84 28l.08 2.08-2.88 1.21-1.43-1.51-1.3.55 5.64 5.9 1.47-.62-.3-8.15zm.26 6.64l-2.35-2.47 2.26-.95.14 3.4zm-51-115.32l-.08-2.08 2.88-1.21 1.43 1.51 1.3-.55-5.64-5.9-1.47.61.29 8.16zm-.26-6.64l2.34 2.47-2.25.95-.14-3.4zm27.64-6.41h-1.33l-.15 7.59h1.33zm49.66 97.88l1.23 1.67-1.69 2.62-2-.44-.76 1.19 8 1.69.87-1.34-4.85-6.57zm4 5.29l-3.33-.71 1.33-2.07zM43.8 28.36l-3-4.91 4.87 3.79 1.23-.76-1.26-6 3 4.91 1.13-.69-4-6.46-1.66 1 1.33 6.35-5.12-4-1.67 1 4 6.46zm-5.21 4.11c1.8-1.55 1.39-3.62.1-5.1s-3.27-2.19-5.06-.64l-2.35 2 5 5.74zm-4.23-4.88c1-.91 2.3-.5 3.31.66s1.23 2.48.18 3.38l-1.28 1.17-3.51-4zM77.8 0a77.8 77.8 0 1 0 77.8 77.8A77.89 77.89 0 0 0 77.8 0zm0 154.6a76.8 76.8 0 1 1 76.8-76.8 76.88 76.88 0 0 1-76.8 76.8zm49.32-110.87l4.62-3-2.48 6.31.77 1.19 6.38-4.11-.71-1.1-4.62 3 2.46-6.33-.75-1.18-6.38 4.11zm-5.5-6.84l1.95-.72 2.05 2.36-1 1.83.93 1.07 3.87-7.2-1-1.2-7.72 2.77zm6.2-2.35l-1.63 3-1.6-1.86zm4.58 18.59c1 2.16 3.08 2.36 4.88 1.55s3-2.53 2-4.68l-1.29-2.83-6.91 3.14zm5.17-4.28l.73 1.6c.57 1.27-.18 2.36-1.58 3s-2.72.48-3.3-.79l-.72-1.59zm-25.86-20.28a3.17 3.17 0 0 0 2.71.52l-.56.81.92.64 2.35-3.39-2.64-1.83-.61.89 1.56 1.08-.22.32a1.93 1.93 0 0 1-2.66.09c-1.13-.78-1.42-2.1-.39-3.59s2.32-1.8 3.54-.95a1.85 1.85 0 0 1 .74 2.51l1.17.53c.88-1.62.13-3-1.29-4-2-1.4-4-.73-5.27 1.11-1.4 2.06-1.04 4.09.65 5.26zm-9.31-5.45l2.43-4.93 1.12 6.68 1.28.63 3.35-6.81-1.18-.58-2.42 4.93-1.18-6.69-1.26-.62-3.34 6.81zm-2.6-2.32l-3.86-1.28.71-2.15 3.24 1.07.36-1.06L97 16.3l.62-1.86 3.86 1.29.35-1.07-5.12-1.7-2.39 7.2 5.12 1.7zM84 12.68l3.24 5.95 1.41.17.95-7.53-1.3-.16-.69 5.46-3.27-6-1.38-.17-.95 7.53 1.31.16zm35.89 22.41l.75-.84-2.5-2.25 4.32-4.81-1-.89-5.07 5.65zm-46.95-17l-.14-1.19-4 .53-.29-2.25 3.4-.44-.15-1.11-3.39.44-.25-1.94 4-.53-.14-1.11-5.36.7 1 7.52zm-1.3 124.92l-3.24-5.95-1.41-.17-.95 7.52 1.3.17.69-5.46 3.27 6 1.38.17.95-7.53-1.31-.16zM55.8 134.8l3.86 1.28-.71 2.15-3.24-1.07-.36 1.06 3.25 1.08-.62 1.85-3.86-1.28-.35 1.07 5.12 1.7 2.39-7.2-5.12-1.7zM31.11 40.16l-4.16-3.59 6.75.6.92-1.07-5.73-5-.86 1 4.16 3.59-6.77-.57-.91 1.05 5.74 5zM75.8 145.27h1.33l.15-7.6h-1.33zm-31.89-18.25a3.2 3.2 0 0 0-2.71-.51l.56-.81-.92-.64-2.35 3.38 2.64 1.84.61-.89-1.56-1.08.22-.32a1.93 1.93 0 0 1 2.66-.09c1.13.78 1.42 2.1.39 3.58s-2.32 1.81-3.54 1a1.85 1.85 0 0 1-.74-2.51l-1.17-.53c-.88 1.61-.13 3 1.29 4 2 1.4 4 .73 5.27-1.11 1.38-2.1 1.02-4.13-.67-5.31zm49.35 8.68c-2.3.61-2.84 2.64-2.33 4.55s2 3.4 4.28 2.79l3-.8-2-7.34zm1.67 6.25c-1.34.36-2.29-.56-2.69-2s0-2.77 1.32-3.12l1.69-.45 1.38 5.16zm16.87-14.71l3 4.91-4.87-3.79-1.23.76 1.26 6-3-4.91-1.13.69 4 6.46 1.66-1-1.33-6.35 5.12 4 1.67-1-4-6.46zm17.16-49.44a51.16 51.16 0 1 0-51.16 51.16 51.22 51.22 0 0 0 51.16-51.16zM77.8 127.96a50.16 50.16 0 1 1 50.16-50.16 50.21 50.21 0 0 1-50.16 50.16zm4.88 9.62l.15 1.12 4-.53.3 2.25-3.4.44.15 1.11 3.39-.44.25 1.94-4 .53.14 1.11 5.36-.7-1-7.52zm-29.48-5.11l-2.4 4.94-1.12-6.68-1.28-.63-3.35 6.81 1.18.58 2.42-4.94 1.16 6.7 1.26.62 3.34-6.81zm71.27-17.06l4.16 3.6-6.75-.6-.93 1.07 5.74 5 .86-1-4.16-3.59 6.77.57.91-1.05-5.74-5zm-102-60.76l-3.14-1.44 1.63-3.57 3.14 1.44.55-1.21-6.85-3.16-.56 1.21 2.74 1.25-1.63 3.57-2.74-1.25-.55 1.2 6.9 3.16zm3.62-7.26l-1.23-1.67 1.69-2.63 2 .45.76-1.2-8-1.68-.87 1.34 4.85 6.57zm-4-5.29l3.33.71-1.26 1.99zm1.07 60.37c-1-2.16-3.08-2.36-4.88-1.55s-3 2.53-2.05 4.68l1.29 2.83 6.91-3.14zm-5.13 4.33l-.73-1.6c-.57-1.27.18-2.36 1.58-3s2.72-.48 3.3.79l.72 1.59zm10.45 5.12l-4.62 3 2.48-6.31-.77-1.19-6.38 4.11.71 1.1 4.62-3-2.46 6.33.75 1.18 6.38-4.11zm5.5 6.84l-2 .72-2-2.36 1-1.83-.93-1.07-3.87 7.19 1 1.21 7.67-2.8zm-6.2 2.35l1.63-3 1.6 1.86zm89.19 2.06c-1.8 1.56-1.39 3.62-.1 5.11s3.27 2.19 5.06.64l2.35-2-5-5.74zm4.23 4.89c-1 .91-2.3.5-3.31-.66s-1.23-2.48-.18-3.39l1.32-1.14 3.5 4zm-85.47-7.48l-.75.84 2.5 2.25-4.32 4.81 1 .89 5.07-5.65z" fill="#0b0b0c"/></symbol><symbol id="tick" viewBox="0 0 427.92 319.99"><path d="M389.18 13.35L375.82 0 184.44 191.22 160 215.63 52 107.89 0 160l107.82 107.8L160 320 427.92 52.05zM184.44 191.22L160 215.62l24.42-24.4z"/></symbol><symbol id="twitter" viewBox="0 0 310 310"><path d="M302.973 57.388a117.512 117.512 0 0 1-14.993 5.463 66.276 66.276 0 0 0 13.494-23.73 5 5 0 0 0-7.313-5.824 117.994 117.994 0 0 1-34.878 13.783c-12.381-12.098-29.197-18.983-46.581-18.983-36.695 0-66.549 29.853-66.549 66.547 0 2.89.183 5.764.545 8.598C101.163 99.244 58.83 76.863 29.76 41.204a5.001 5.001 0 0 0-8.196.642c-5.896 10.117-9.013 21.688-9.013 33.461 0 16.035 5.725 31.249 15.838 43.137a56.37 56.37 0 0 1-8.907-3.977 5 5 0 0 0-7.427 4.257c-.007.295-.007.59-.007.889 0 23.935 12.882 45.484 32.577 57.229a57.372 57.372 0 0 1-5.063-.735 4.998 4.998 0 0 0-5.699 6.437c7.29 22.76 26.059 39.501 48.749 44.605-18.819 11.787-40.34 17.961-62.932 17.961a120.4 120.4 0 0 1-14.095-.826 5 5 0 0 0-3.286 9.174c29.023 18.609 62.582 28.445 97.047 28.445 67.754 0 110.139-31.95 133.764-58.753 29.46-33.421 46.356-77.658 46.356-121.367 0-1.826-.028-3.67-.084-5.508 11.623-8.757 21.63-19.355 29.773-31.536a5 5 0 0 0-6.182-7.351z"/></symbol><symbol id="youtube" viewBox="0 0 94.75 71.06"><path class="a" d="M77.44.73c-14.23-1-45.92-1-60.13 0C1.93 1.78.11 11.07 0 35.53.11 60 1.91 69.28 17.31 70.34c14.21 1 45.9 1 60.13 0 15.38-1 17.19-10.35 17.31-34.81-.12-24.42-1.91-33.75-17.31-34.8zM35.53 51.32V19.74L67.11 35.5z"/></symbol></svg>